<svg xmlns="http://www.w3.org/2000/svg" version="1.1" xmlns:xlink="http://www.w3.org/1999/xlink" xmlns:svgjs="http://svgjs.dev/svgjs" width="1500" height="147" viewBox="0 0 1500 147"><g transform="matrix(1,0,0,1,-0.9090909090909918,0.26549329329976956)"><svg viewBox="0 0 396 39" data-background-color="#ffffff" preserveAspectRatio="xMidYMid meet" height="147" width="1500" xmlns="http://www.w3.org/2000/svg" xmlns:xlink="http://www.w3.org/1999/xlink"><g id="tight-bounds" transform="matrix(1,0,0,1,0.2400000000000091,-0.07043699618157007)"><svg viewBox="0 0 395.52 39.14087399236317" height="39.14087399236317" width="395.52"><g><svg viewBox="0 0 395.52 39.14087399236317" height="39.14087399236317" width="395.52"><g><svg viewBox="0 0 395.52 39.14087399236317" height="39.14087399236317" width="395.52"><g id="textblocktransform"><svg viewBox="0 0 395.52 39.14087399236317" height="39.14087399236317" width="395.52" id="textblock"><g><svg viewBox="0 0 395.52 39.14087399236317" height="39.14087399236317" width="395.52"><g transform="matrix(1,0,0,1,0,0)"><svg width="395.52" viewBox="2.2 -36.5 471.35 46.65" height="39.14087399236317" data-palette-color="#020603"><path d="M26.25 0L12.35 0Q9.45 0 7.15-1.38 4.85-2.75 3.53-5.08 2.2-7.4 2.2-10.2L2.2-10.2Q2.2-12.4 3.23-14.38 4.25-16.35 6.1-17.7L6.1-17.7Q4.25-19.05 3.25-20.98 2.25-22.9 2.25-25L2.25-25Q2.25-27.8 3.58-30.05 4.9-32.3 7.15-33.65 9.4-35 12.15-35L12.15-35 26.25-35 26.25-29.7 12.8-29.7Q11.55-29.7 10.5-29.08 9.45-28.45 8.83-27.4 8.2-26.35 8.2-25L8.2-25Q8.2-23.8 8.85-22.75 9.5-21.7 10.55-21.08 11.6-20.45 12.9-20.45L12.9-20.45 24.5-20.45 24.5-15.15 13.2-15.15Q11.7-15.15 10.55-14.45 9.4-13.75 8.78-12.63 8.15-11.5 8.15-10.15L8.15-10.15Q8.15-8.85 8.78-7.73 9.4-6.6 10.53-5.93 11.65-5.25 13.1-5.25L13.1-5.25 26.25-5.25 26.25 0ZM47.2 0L44.1 0Q40.15 0 37.05-1.7 33.95-3.4 32.15-6.28 30.35-9.15 30.35-12.75L30.35-12.75Q30.35-16.35 32.15-19.23 33.95-22.1 37.05-23.8 40.15-25.5 44.1-25.5L44.1-25.5 47.2-25.5 47.2-20.6 44-20.6Q41.7-20.6 39.92-19.58 38.15-18.55 37.15-16.75 36.15-14.95 36.15-12.75L36.15-12.75Q36.15-10.55 37.15-8.75 38.15-6.95 39.92-5.93 41.7-4.9 44-4.9L44-4.9 47.2-4.9 47.2 0ZM64.34 0.6L64.34 0.6Q60.4 0.6 57.35-1.18 54.3-2.95 52.52-5.98 50.75-9 50.75-12.75L50.75-12.75Q50.75-16.5 52.52-19.53 54.3-22.55 57.35-24.33 60.4-26.1 64.34-26.1L64.34-26.1Q68.25-26.1 71.3-24.33 74.34-22.55 76.12-19.53 77.9-16.5 77.9-12.75L77.9-12.75Q77.9-9 76.12-5.98 74.34-2.95 71.3-1.18 68.25 0.6 64.34 0.6ZM64.34-4.3L64.34-4.3Q66.7-4.3 68.45-5.43 70.2-6.55 71.15-8.47 72.09-10.4 72.09-12.75L72.09-12.75Q72.09-15.1 71.15-17.03 70.2-18.95 68.45-20.08 66.7-21.2 64.34-21.2L64.34-21.2Q61.95-21.2 60.22-20.08 58.5-18.95 57.52-17.03 56.55-15.1 56.55-12.75L56.55-12.75Q56.55-10.4 57.52-8.47 58.5-6.55 60.22-5.43 61.95-4.3 64.34-4.3ZM115.44 0L106.14 0Q103.19 0 100.97-1.33 98.74-2.65 97.52-4.9 96.29-7.15 96.29-9.9L96.29-9.9 96.29-35 102.29-35 102.29-9.15Q102.29-7.55 103.37-6.4 104.44-5.25 106.14-5.25L106.14-5.25 115.44-5.25 115.44 0ZM125.89 0L120.14 0 120.14-25.5 125.89-25.5 125.89 0ZM122.99-29.05L122.99-29.05Q121.49-29.05 120.39-30.15 119.29-31.25 119.29-32.75L119.29-32.75Q119.29-34.25 120.39-35.35 121.49-36.45 122.99-36.45L122.99-36.45Q124.54-36.45 125.61-35.35 126.69-34.25 126.69-32.75L126.69-32.75Q126.69-31.25 125.61-30.15 124.54-29.05 122.99-29.05ZM143.74 0.6L143.74 0.6Q141.74 0.6 140.16-0.5 138.59-1.6 137.89-3.45L137.89-3.45 130.09-25.5 136.34-25.5 142.99-5.7Q143.14-5.35 143.34-5.2 143.53-5.05 143.78-5.05L143.78-5.05Q144.03-5.05 144.26-5.2 144.49-5.35 144.59-5.7L144.59-5.7 151.29-25.5 157.44-25.5 149.59-3.45Q148.94-1.6 147.34-0.5 145.74 0.6 143.74 0.6ZM167.38 0L161.63 0 161.63-25.5 167.38-25.5 167.38 0ZM164.48-29.05L164.48-29.05Q162.98-29.05 161.88-30.15 160.78-31.25 160.78-32.75L160.78-32.75Q160.78-34.25 161.88-35.35 162.98-36.45 164.48-36.45L164.48-36.45Q166.03-36.45 167.11-35.35 168.18-34.25 168.18-32.75L168.18-32.75Q168.18-31.25 167.11-30.15 166.03-29.05 164.48-29.05ZM180.03 0L174.28 0 174.28-14.7Q174.28-18 175.78-20.58 177.28-23.15 180.03-24.63 182.78-26.1 186.48-26.1L186.48-26.1Q190.18-26.1 192.91-24.63 195.63-23.15 197.13-20.58 198.63-18 198.63-14.7L198.63-14.7 198.63 0 192.93 0 192.93-14.65Q192.93-16.6 192.03-18.07 191.13-19.55 189.66-20.38 188.18-21.2 186.43-21.2L186.43-21.2Q184.73-21.2 183.26-20.38 181.78-19.55 180.91-18.07 180.03-16.6 180.03-14.65L180.03-14.65 180.03 0ZM223.23 10.15L209.38 10.15 209.38 5.25 222.18 5.25Q223.48 5.25 224.2 4.45 224.93 3.65 224.93 2.45L224.93 2.45 224.93-4.15 224.88-4.15Q223.78-2.8 222.53-1.83 221.28-0.85 219.7-0.33 218.13 0.2 216.23 0.2L216.23 0.2Q212.73 0.2 209.98-1.45 207.23-3.1 205.65-6.08 204.08-9.05 204.08-12.9L204.08-12.9Q204.08-16.65 205.65-19.63 207.23-22.6 210.18-24.35 213.13-26.1 217.38-26.1L217.38-26.1Q221.43-26.1 224.4-24.4 227.38-22.7 229.03-19.63 230.68-16.55 230.68-12.45L230.68-12.45 230.68 2.7Q230.68 6.15 228.68 8.15 226.68 10.15 223.23 10.15L223.23 10.15ZM217.33-4.7L217.33-4.7Q219.63-4.7 221.3-5.78 222.98-6.85 223.9-8.68 224.83-10.5 224.83-12.75L224.83-12.75Q224.83-15.15 223.93-17.05 223.03-18.95 221.35-20.08 219.68-21.2 217.33-21.2L217.33-21.2Q215.03-21.2 213.35-20.08 211.68-18.95 210.78-17.07 209.88-15.2 209.88-12.85L209.88-12.85Q209.88-10.6 210.78-8.75 211.68-6.9 213.35-5.8 215.03-4.7 217.33-4.7ZM266.52 0L250.72 0 250.72-5.25 265.77-5.25Q267.22-5.25 268.3-5.95 269.37-6.65 270-7.78 270.62-8.9 270.62-10.15L270.62-10.15Q270.62-11.5 270.02-12.6 269.42-13.7 268.35-14.35 267.27-15 265.87-15L265.87-15 259.62-15Q256.67-15 254.35-16.23 252.02-17.45 250.67-19.65 249.32-21.85 249.32-24.85L249.32-24.85Q249.32-27.85 250.62-30.13 251.92-32.4 254.17-33.7 256.42-35 259.27-35L259.27-35 274.32-35 274.32-29.75 259.82-29.75Q258.52-29.75 257.47-29.1 256.42-28.45 255.85-27.4 255.27-26.35 255.27-25.15L255.27-25.15Q255.27-23.9 255.85-22.88 256.42-21.85 257.45-21.23 258.47-20.6 259.77-20.6L259.77-20.6 266.17-20.6Q269.37-20.6 271.7-19.35 274.02-18.1 275.3-15.9 276.57-13.7 276.57-10.85L276.57-10.85Q276.57-7.5 275.25-5.08 273.92-2.65 271.65-1.33 269.37 0 266.52 0L266.52 0ZM294.12 0.6L294.12 0.6Q290.17 0.6 287.12-1.18 284.07-2.95 282.3-5.98 280.52-9 280.52-12.75L280.52-12.75Q280.52-16.5 282.3-19.53 284.07-22.55 287.12-24.33 290.17-26.1 294.12-26.1L294.12-26.1Q298.02-26.1 301.07-24.33 304.12-22.55 305.9-19.53 307.67-16.5 307.67-12.75L307.67-12.75Q307.67-9 305.9-5.98 304.12-2.95 301.07-1.18 298.02 0.6 294.12 0.6ZM294.12-4.3L294.12-4.3Q296.47-4.3 298.22-5.43 299.97-6.55 300.92-8.47 301.87-10.4 301.87-12.75L301.87-12.75Q301.87-15.1 300.92-17.03 299.97-18.95 298.22-20.08 296.47-21.2 294.12-21.2L294.12-21.2Q291.72-21.2 290-20.08 288.27-18.95 287.3-17.03 286.32-15.1 286.32-12.75L286.32-12.75Q286.32-10.4 287.3-8.47 288.27-6.55 290-5.43 291.72-4.3 294.12-4.3ZM318.87 0L313.12 0 313.12-36.5 318.87-36.5 318.87 0ZM337.96 0.6L337.96 0.6Q334.26 0.6 331.51-0.88 328.76-2.35 327.26-4.95 325.76-7.55 325.76-10.8L325.76-10.8 325.76-25.5 331.51-25.5 331.51-10.85Q331.51-8.9 332.39-7.43 333.26-5.95 334.74-5.13 336.21-4.3 337.96-4.3L337.96-4.3Q339.71-4.3 341.19-5.13 342.67-5.95 343.54-7.43 344.42-8.9 344.42-10.85L344.42-10.85 344.42-25.5 350.17-25.5 350.17-10.8Q350.17-7.55 348.64-4.95 347.12-2.35 344.39-0.88 341.67 0.6 337.96 0.6ZM372.21 0L365.86 0Q362.46 0 360.54-1.95 358.61-3.9 358.61-7.25L358.61-7.25 358.61-31.9 364.31-31.9 364.31-7.5Q364.31-6.35 365.01-5.63 365.71-4.9 366.86-4.9L366.86-4.9 372.21-4.9 372.21 0ZM372.26-20.6L354.21-20.6 354.21-25.5 372.26-25.5 372.26-20.6ZM383.41 0L377.66 0 377.66-25.5 383.41-25.5 383.41 0ZM380.51-29.05L380.51-29.05Q379.01-29.05 377.91-30.15 376.81-31.25 376.81-32.75L376.81-32.75Q376.81-34.25 377.91-35.35 379.01-36.45 380.51-36.45L380.51-36.45Q382.06-36.45 383.14-35.35 384.21-34.25 384.21-32.75L384.21-32.75Q384.21-31.25 383.14-30.15 382.06-29.05 380.51-29.05ZM402.46 0.6L402.46 0.6Q398.51 0.6 395.46-1.18 392.41-2.95 390.63-5.98 388.86-9 388.86-12.75L388.86-12.75Q388.86-16.5 390.63-19.53 392.41-22.55 395.46-24.33 398.51-26.1 402.46-26.1L402.46-26.1Q406.36-26.1 409.41-24.33 412.46-22.55 414.23-19.53 416.01-16.5 416.01-12.75L416.01-12.75Q416.01-9 414.23-5.98 412.46-2.95 409.41-1.18 406.36 0.6 402.46 0.6ZM402.46-4.3L402.46-4.3Q404.81-4.3 406.56-5.43 408.31-6.55 409.26-8.47 410.21-10.4 410.21-12.75L410.21-12.75Q410.21-15.1 409.26-17.03 408.31-18.95 406.56-20.08 404.81-21.2 402.46-21.2L402.46-21.2Q400.06-21.2 398.33-20.08 396.61-18.95 395.63-17.03 394.66-15.1 394.66-12.75L394.66-12.75Q394.66-10.4 395.63-8.47 396.61-6.55 398.33-5.43 400.06-4.3 402.46-4.3ZM427.2 0L421.45 0 421.45-14.7Q421.45-18 422.95-20.58 424.45-23.15 427.2-24.63 429.95-26.1 433.65-26.1L433.65-26.1Q437.36-26.1 440.08-24.63 442.81-23.15 444.31-20.58 445.81-18 445.81-14.7L445.81-14.7 445.81 0 440.11 0 440.11-14.65Q440.11-16.6 439.2-18.07 438.31-19.55 436.83-20.38 435.36-21.2 433.61-21.2L433.61-21.2Q431.9-21.2 430.43-20.38 428.95-19.55 428.08-18.07 427.2-16.6 427.2-14.65L427.2-14.65 427.2 0ZM465.5 0L452.6 0 452.6-4.9 464.9-4.9Q465.8-4.9 466.48-5.3 467.15-5.7 467.53-6.35 467.9-7 467.9-7.7L467.9-7.7Q467.9-8.5 467.55-9.1 467.2-9.7 466.55-10.08 465.9-10.45 465.05-10.45L465.05-10.45 460.05-10.45Q457.6-10.45 455.7-11.25 453.8-12.05 452.7-13.73 451.6-15.4 451.6-17.95L451.6-17.95Q451.6-20 452.63-21.7 453.65-23.4 455.4-24.45 457.15-25.5 459.35-25.5L459.35-25.5 471.2-25.5 471.2-20.6 459.9-20.6Q458.75-20.6 458-19.88 457.25-19.15 457.25-18.1L457.25-18.1Q457.25-17.1 458-16.35 458.75-15.6 460-15.6L460-15.6 464.85-15.6Q467.6-15.6 469.55-14.75 471.5-13.9 472.53-12.2 473.55-10.5 473.55-7.9L473.55-7.9Q473.55-5.8 472.5-3.98 471.45-2.15 469.63-1.07 467.8 0 465.5 0L465.5 0Z" opacity="1" transform="matrix(1,0,0,1,0,0)" fill="#020603" class="wordmark-text-0" data-fill-palette-color="primary" id="text-0"></path></svg></g></svg></g></svg></g></svg></g><g></g></svg></g><defs></defs></svg><rect width="395.52" height="39.14087399236317" fill="none" stroke="none" visibility="hidden"></rect></g></svg></g></svg>